<?xml version="1.0" encoding="UTF-8" standalone="no" ?>
<!DOCTYPE svg PUBLIC "-//W3C//DTD SVG 1.1//EN" "http://www.w3.org/Graphics/SVG/1.1/DTD/svg11.dtd">
<svg xmlns="http://www.w3.org/2000/svg" xmlns:xlink="http://www.w3.org/1999/xlink" version="1.1" width="500" height="500" viewBox="0 0 500 500" xml:space="preserve">
<desc>Created with Fabric.js 4.6.0</desc>
<defs>
</defs>
<g transform="matrix(1 0 0 1 133.68 84.72)" id="ZG9e76Wvo_ZshUUg3gPaF"  >
<path style="stroke: rgb(0,0,0); stroke-width: 1; stroke-dasharray: none; stroke-linecap: butt; stroke-dashoffset: 0; stroke-linejoin: miter; stroke-miterlimit: 4; fill: rgb(255,255,255); fill-opacity: 0; fill-rule: nonzero; opacity: 1;" vector-effect="non-scaling-stroke"  transform=" translate(0, 0)" d="M 0 0" stroke-linecap="round" />
</g>
<g transform="matrix(1.31 0 0 1.31 250 250)" id="Cz8reI5S7oGFZqIXeM_C-"  >
<path style="stroke: rgb(0,0,0); stroke-width: 1; stroke-dasharray: none; stroke-linecap: butt; stroke-dashoffset: 0; stroke-linejoin: miter; stroke-miterlimit: 4; fill: rgb(255,255,255); fill-opacity: 0; fill-rule: nonzero; opacity: 1;" vector-effect="non-scaling-stroke"  transform=" translate(0, 0)" d="M -117.64912 -147.47441 L -141.53226 -111.69355000000002 L -161.29032 -75.40323000000001 L -166.93548 -56.85484000000001 L -170.16129 -35.88710000000001 L -171.77419 -6.451620000000013 L -141.53225 -2.0161400000000125 L -112.49999 -3.6290400000000123 L -95.96772999999999 -6.451620000000013 L -102.01611999999999 23.790319999999987 L -65.32256999999998 50.806449999999984 L -57.661279999999984 78.22579999999999 L -86.69353999999998 106.45160999999999 L -75.80643999999998 130.64515999999998 L -60.88708999999998 148.38709999999998 L -46.37095999999998 159.67741999999998 L -25.403219999999983 153.22581 L -14.516119999999983 182.25807 L 1.2096900000000161 184.67742 L 44.758080000000014 177.41936 L 61.69356000000001 167.74194 L 54.83872000000001 136.29033 L 83.87098 139.11291 L 95.56453 113.30646 L 102.82259 88.30646 L 106.0484 71.37098 L 57.661300000000004 57.661300000000004 L 59.67743 38.30646 L 91.53227 8.064520000000002 L 74.19355999999999 -39.51613 L 110.08066 -47.58065 L 146.77420999999998 -61.29033 L 171.77420999999998 -77.41936 L 169.35485999999997 -88.70967999999999 L 143.54840999999996 -130.24194 L 129.43550999999997 -147.47441 L 106.04840999999996 -167.74194 L 80.64517999999995 -184.67741999999998 L 89.51614999999995 -167.74194 L 100.80646999999995 -146.47441 L 110.08065999999995 -114.51613 L 111.69355999999995 -100.80645 L 95.56452999999995 -92.33870999999999 L 74.19355999999995 -85.08064999999999 L 54.83871999999995 -82.6613 L 66.12903999999995 -98.79033 L 66.12903999999995 -154.43549 L 16.532269999999947 -114.51613999999998 L 12.903239999999947 -85.08065999999998 L -16.53224000000005 -94.35484999999998 L -36.69353000000005 -77.41936999999999 L -49.59676000000005 -103.62904999999998 L -98.38708000000005 -124.59678999999997 L -93.95160000000006 -72.98388999999997 L -70.96773000000006 -56.854859999999974 L -93.95160000000006 -49.19356999999997 L -114.51612000000006 -47.58066999999997 L -133.06451000000007 -51.20969999999997 L -129.83870000000007 -94.35485999999997 z" stroke-linecap="round" />
</g>
</svg>